0
SECTION
2
HEADER
9
$INSUNITS
70
1
9
$ACADVER
1
AC1014
9
$HANDSEED
5
FFFF
0
ENDSEC
0
SECTION
2
TABLES
0
TABLE
2
VPORT
5
8
100
AcDbSymbolTable
0
ENDTAB
0
TABLE
2
LTYPE
5
5
100
AcDbSymbolTable
0
LTYPE
5
14
100
AcDbSymbolTableRecord
100
AcDbLinetypeTableRecord
2
BYBLOCK
70
0
0
LTYPE
5
15
100
AcDbSymbolTableRecord
100
AcDbLinetypeTableRecord
2
BYLAYER
70
0
0
ENDTAB
0
TABLE
2
LAYER
5
2
100
AcDbSymbolTable
70
2
0
LAYER
5
50
100
AcDbSymbolTableRecord
100
AcDbLayerTableRecord
2
0
70
0
6
CONTINUOUS
0
ENDTAB
0
TABLE
2
STYLE
5
3
100
AcDbSymbolTable
70
1
0
STYLE
5
11
100
AcDbSymbolTableRecord
100
AcDbTextStyleTableRecord
2
STANDARD
70
0
0
ENDTAB
0
TABLE
2
VIEW
5
6
100
AcDbSymbolTable
70
0
0
ENDTAB
0
TABLE
2
UCS
5
7
100
AcDbSymbolTable
70
0
0
ENDTAB
0
TABLE
2
APPID
5
9
100
AcDbSymbolTable
70
2
0
APPID
5
12
100
AcDbSymbolTableRecord
100
AcDbRegAppTableRecord
2
ACAD
70
0
0
ENDTAB
0
TABLE
2
DIMSTYLE
5
A
100
AcDbSymbolTable
70
1
0
ENDTAB
0
TABLE
2
BLOCK_RECORD
5
1
100
AcDbSymbolTable
70
1
0
BLOCK_RECORD
5
1F
100
AcDbSymbolTableRecord
100
AcDbBlockTableRecord
2
*MODEL_SPACE
0
BLOCK_RECORD
5
1B
100
AcDbSymbolTableRecord
100
AcDbBlockTableRecord
2
*PAPER_SPACE
0
ENDTAB
0
ENDSEC
0
SECTION
2
BLOCKS
0
BLOCK
5
20
100
AcDbEntity
100
AcDbBlockBegin
2
*MODEL_SPACE
0
ENDBLK
5
21
100
AcDbEntity
100
AcDbBlockEnd
0
BLOCK
5
1C
100
AcDbEntity
100
AcDbBlockBegin
2
*PAPER_SPACE
0
ENDBLK
5
1D
100
AcDbEntity
100
AcDbBlockEnd
0
ENDSEC
0
SECTION
2
ENTITIES
0
LINE
5
100
100
AcDbEntity
8
0
100
AcDbLine
10
3.6669999999999998
20
0.44999999999999996
30
0
11
3.6669999999999998
21
-2.9499999999999997
31
0
0
LINE
5
101
100
AcDbEntity
8
0
100
AcDbLine
10
3.6669999999999998
20
-2.9499999999999997
30
0
11
1.7669999999999997
21
-2.9499999999999997
31
0
0
LINE
5
102
100
AcDbEntity
8
0
100
AcDbLine
10
1.7669999999999997
20
-2.9499999999999997
30
0
11
1.7669999999999997
21
-3.0500000000000003
31
0
0
LINE
5
103
100
AcDbEntity
8
0
100
AcDbLine
10
1.7669999999999997
20
-3.0500000000000003
30
0
11
3.9002499999999993
21
-3.0500000000000003
31
0
0
LINE
5
104
100
AcDbEntity
8
0
100
AcDbLine
10
3.9002499999999993
20
-3.0500000000000003
30
0
11
3.9002499999999993
21
0.54999999999999971
31
0
0
LINE
5
105
100
AcDbEntity
8
0
100
AcDbLine
10
3.9002499999999993
20
0.54999999999999971
30
0
11
1.7669999999999997
21
0.54999999999999993
31
0
0
LINE
5
106
100
AcDbEntity
8
0
100
AcDbLine
10
1.7669999999999997
20
0.54999999999999993
30
0
11
1.7669999999999997
21
0.44999999999999996
31
0
0
LINE
5
107
100
AcDbEntity
8
0
100
AcDbLine
10
1.7669999999999997
20
0.44999999999999996
30
0
11
3.6669999999999998
21
0.44999999999999996
31
0
0
LINE
5
108
100
AcDbEntity
8
0
100
AcDbLine
10
3.6002499999999986
20
-3.0500000000000003
30
0
11
-3.599749999999998
21
-3.0499999999999998
31
0
0
LINE
5
109
100
AcDbEntity
8
0
100
AcDbLine
10
-3.8997500000000005
20
-2.7500000000000009
30
0
11
-3.8997500000000005
21
0.25000149018352069
31
0
0
LINE
5
110
100
AcDbEntity
8
0
100
AcDbLine
10
-3.5997499512467406
20
0.55000149018352207
30
0
11
3.6002500487532592
21
0.55000029510558834
31
0
0
LINE
5
111
100
AcDbEntity
8
0
100
AcDbLine
10
3.9002499999999993
20
0.2500002951055873
30
0
11
3.9002499999999993
21
-2.7499999999999991
31
0
0
LWPOLYLINE
5
112
100
AcDbEntity
8
0
100
AcDbPolyline
90
4
70
1
43
0.0
10
-1.9297499999999996
20
-2.367
10
1.9302499999999996
20
-2.367
10
1.9302499999999996
20
-0.13300000000000015
10
-1.9297499999999996
20
-0.13300000000000026
0
LWPOLYLINE
5
113
100
AcDbEntity
8
0
100
AcDbPolyline
90
8
70
1
43
0.0
10
-2.0447499999999996
20
-2.4819999999999998
10
2.0452499999999993
20
-2.4819999999999998
10
2.0802499999999999
20
-2.4819999999999998
10
2.0802499999999999
20
0.16699999999999984
10
-1.9297499999999996
20
0.16699999999999984
10
-2.0797499999999998
20
0.16699999999999984
10
-2.0797499999999998
20
0.016999999999999821
10
-2.0797499999999998
20
-2.4819999999999998
0
LINE
5
114
100
AcDbEntity
8
0
100
AcDbLine
10
-1.9297499999999996
20
-0.13300000000000015
30
0
11
1.9302499999999996
21
-0.13300000000000015
31
0
0
LINE
5
115
100
AcDbEntity
8
0
100
AcDbLine
10
3.6669999999999998
20
-2.9499999999999997
30
0
11
-3.6665000000000005
21
-2.9499999999999997
31
0
0
LINE
5
116
100
AcDbEntity
8
0
100
AcDbLine
10
-3.6665000000000005
20
-2.9499999999999997
30
0
11
-3.6665000000000001
21
0.44999999999999996
31
0
0
LINE
5
117
100
AcDbEntity
8
0
100
AcDbLine
10
-3.6665000000000001
20
0.44999999999999996
30
0
11
3.6669999999999998
21
0.44999999999999996
31
0
0
LINE
5
118
100
AcDbEntity
8
0
100
AcDbLine
10
3.6669999999999998
20
0.44999999999999996
30
0
11
3.6669999999999998
21
-2.9499999999999997
31
0
0
LINE
5
119
100
AcDbEntity
8
0
100
AcDbLine
10
3.9002499999999993
20
-3.0500000000000003
30
0
11
2.9152499999999995
21
-3.0500000000000003
31
0
0
LINE
5
120
100
AcDbEntity
8
0
100
AcDbLine
10
3.9002499999999993
20
-2.0649999999999999
30
0
11
3.9002499999999993
21
-3.0500000000000003
31
0
0
CIRCLE
5
121
100
AcDbEntity
8
0
100
AcDbCircle
10
2.9152499999999995
20
-2.0649999999999999
30
0
40
0.5
0
LINE
5
122
100
AcDbEntity
8
0
100
AcDbLine
10
-3.8997500000000005
20
-3.0500000000000003
30
0
11
-2.9147500000000002
21
-3.0500000000000003
31
0
0
LINE
5
123
100
AcDbEntity
8
0
100
AcDbLine
10
-3.8997500000000005
20
-2.0649999999999999
30
0
11
-3.8997500000000005
21
-3.0500000000000003
31
0
0
CIRCLE
5
124
100
AcDbEntity
8
0
100
AcDbCircle
10
-2.9147500000000002
20
-2.0649999999999999
30
0
40
0.29999999999999988
0
ARC
5
125
100
AcDbEntity
8
0
100
AcDbCircle
10
3.6002499999999986
20
-2.7499999999999996
30
0
40
0.30000000000000088
100
AcDbArc
50
-90
51
0
0
ARC
5
126
100
AcDbEntity
8
0
100
AcDbCircle
10
3.6002499999999995
20
0.2500002951055873
30
0
40
0.30000000000000016
100
AcDbArc
50
0
51
89.999990688813298
0
ARC
5
127
100
AcDbEntity
8
0
100
AcDbCircle
10
-3.5997500000000002
20
0.25000149018352069
30
0
40
0.30000000000000532
100
AcDbArc
50
89.999990688813298
51
180
0
ARC
5
128
100
AcDbEntity
8
0
100
AcDbCircle
10
-3.599750000000002
20
-2.7500000000000018
30
0
40
0.29999999999999805
100
AcDbArc
50
180
51
270.00000000000074
0
LINE
5
129
100
AcDbEntity
8
0
100
AcDbLine
10
3.9002499999999993
20
0.2500002951055873
30
0
11
3.9002499999999993
21
0.54999999999999971
31
0
0
LINE
5
130
100
AcDbEntity
8
0
100
AcDbLine
10
3.6002500487532592
20
0.55000029510558834
30
0
11
3.9002499999999993
21
0.54999999999999971
31
0
0
LINE
5
131
100
AcDbEntity
8
0
100
AcDbLine
10
-3.5997499512467406
20
0.55000149018352207
30
0
11
-3.8997500000000005
21
0.54999999999999993
31
0
0
LINE
5
132
100
AcDbEntity
8
0
100
AcDbLine
10
-3.8997500000000005
20
0.54999999999999993
30
0
11
-3.8997500000000005
21
0.25000149018352069
31
0
0
LINE
5
133
100
AcDbEntity
8
0
100
AcDbLine
10
-2.2797499999999999
20
-2.5070000000000001
30
0
11
-2.2797499999999999
21
-2.9499999999999997
31
0
0
LINE
5
134
100
AcDbEntity
8
0
100
AcDbLine
10
-1.9297500000000001
20
-2.5070000000000001
30
0
11
-1.9297500000000001
21
-2.9499999999999997
31
0
0
LINE
5
135
100
AcDbEntity
8
0
100
AcDbLine
10
1.9302499999999996
20
-2.5070000000000001
30
0
11
1.9305628247548021
21
-2.9499999999999997
31
0
0
LINE
5
136
100
AcDbEntity
8
0
100
AcDbLine
10
2.2802489593312245
20
-2.5076035171815918
30
0
11
2.2805653897159304
21
-2.9499999999999997
31
0
0
LINE
5
137
100
AcDbEntity
8
0
100
AcDbLine
10
-2.1047500000000001
20
0.19199999999999984
30
0
11
-1.9297499999999996
21
0.19199999999999984
31
0
0
LINE
5
138
100
AcDbEntity
8
0
100
AcDbLine
10
2.1052499999999998
20
0.19199999999999967
30
0
11
1.93025
21
0.19199999999999967
31
0
0
LINE
5
139
100
AcDbEntity
8
0
100
AcDbLine
10
2.0452499999999993
20
-2.5070000000000001
30
0
11
2.1052499999999998
21
-2.5070000000000001
31
0
0
LINE
5
140
100
AcDbEntity
8
0
100
AcDbLine
10
-2.0447499999999996
20
-2.5070000000000001
30
0
11
-2.1047500000000001
21
-2.5070000000000001
31
0
0
LINE
5
141
100
AcDbEntity
8
0
100
AcDbLine
10
-2.1047500000000001
20
-2.5070000000000001
30
0
11
-2.1047500000000001
21
-2.3320000000000003
31
0
0
LINE
5
142
100
AcDbEntity
8
0
100
AcDbLine
10
-2.1047500000000001
20
0.016999999999999821
30
0
11
-2.1047500000000001
21
0.19199999999999984
31
0
0
LINE
5
143
100
AcDbEntity
8
0
100
AcDbLine
10
2.0452499999999993
20
-2.5070000000000001
30
0
11
1.9302499999999996
21
-2.5070000000000001
31
0
0
LINE
5
144
100
AcDbEntity
8
0
100
AcDbLine
10
-1.9297500000000001
20
-2.5070000000000001
30
0
11
-2.0447499999999996
21
-2.5070000000000001
31
0
0
ARC
5
145
100
AcDbEntity
8
0
100
AcDbCircle
10
2.1052499999999998
20
-2.5070000000000001
30
0
40
0.17500000000000018
100
AcDbArc
50
-0.19759460521257591
51
90
0
ARC
5
146
100
AcDbEntity
8
0
100
AcDbCircle
10
2.1052499999999998
20
-2.5070000000000001
30
0
40
0.17500000000000021
100
AcDbArc
50
180
51
180.08091889471856
0
ARC
5
147
100
AcDbEntity
8
0
100
AcDbCircle
10
-2.1047500000000001
20
-2.5070000000000001
30
0
40
0.17499999999999985
100
AcDbArc
50
90
51
180
0
LINE
5
148
100
AcDbEntity
8
0
100
AcDbLine
10
1.93025
20
0.19199999999999967
30
0
11
1.9297030692330861
21
0.44999999999999996
31
0
0
LINE
5
149
100
AcDbEntity
8
0
100
AcDbLine
10
2.2802499999999997
20
0.19199999999999967
30
0
11
2.2802499999999997
21
0.47496508425197681
31
0
0
LINE
5
150
100
AcDbEntity
8
0
100
AcDbLine
10
-1.9297499999999996
20
0.19199999999999984
30
0
11
-1.9297499999999996
21
0.44999999999999996
31
0
0
LINE
5
151
100
AcDbEntity
8
0
100
AcDbLine
10
-2.2797499999999999
20
0.19199999999999984
30
0
11
-2.2797499999999999
21
0.44999999999999996
31
0
0
ARC
5
152
100
AcDbEntity
8
0
100
AcDbCircle
10
-2.1047500000000001
20
0.19199999999999984
30
0
40
0.17499999999999985
100
AcDbArc
50
180
51
270
0
ARC
5
153
100
AcDbEntity
8
0
100
AcDbCircle
10
2.1052499999999998
20
0.19199999999999967
30
0
40
0.17499999999999993
100
AcDbArc
50
-90
51
0
0
LINE
5
154
100
AcDbEntity
8
0
100
AcDbLine
10
2.1052499999999998
20
-2.5070000000000001
30
0
11
2.1052499999999998
21
-2.3319999999999999
31
0
0
LINE
5
155
100
AcDbEntity
8
0
100
AcDbLine
10
2.1052499999999998
20
0.016999999999999738
30
0
11
2.1052499999999998
21
0.19199999999999967
31
0
0
LINE
5
156
100
AcDbEntity
8
0
100
AcDbLine
10
3.6002499999999986
20
-2.9500000000000006
30
0
11
-3.599749999999998
21
-2.9499999999999997
31
0
0
CIRCLE
5
157
100
AcDbEntity
8
0
100
AcDbCircle
10
-3.799705226456954
20
-2.5750000000000002
30
0
40
0.039999999999999786
0
LINE
5
158
100
AcDbEntity
8
0
100
AcDbLine
10
-3.7996584752507192
20
-2.6750447626195606
30
0
11
-3.8999999532988072
21
-2.6750916524817709
31
0
0
LINE
5
159
100
AcDbEntity
8
0
100
AcDbLine
10
-3.7997500000000004
20
-2.4749552364758198
30
0
11
-3.8997500000000005
21
-2.4749999899856192
31
0
0
ARC
5
160
100
AcDbEntity
8
0
100
AcDbCircle
10
-3.799705226456954
20
-2.5750000000000002
30
0
40
0.10004477354304658
100
AcDbArc
50
-89.973225518864965
51
90.025641870586469
0
CIRCLE
5
161
100
AcDbEntity
8
0
100
AcDbCircle
10
3.8010284993073333
20
-2.5750000000000002
30
0
40
0.039999999999999786
0
LINE
5
162
100
AcDbEntity
8
0
100
AcDbLine
10
3.8010284993073333
20
-2.6742215006926662
30
0
11
3.9002499999999993
21
-2.6742215006926662
31
0
0
LINE
5
163
100
AcDbEntity
8
0
100
AcDbLine
10
3.8010284993073333
20
-2.4757784993073337
30
0
11
3.9002499999999993
21
-2.4757784993073333
31
0
0
ARC
5
164
100
AcDbEntity
8
0
100
AcDbCircle
10
3.8010284993073333
20
-2.5750000000000002
30
0
40
0.099221500692666234
100
AcDbArc
50
90
51
270
0
ARC
5
165
100
AcDbEntity
8
0
100
AcDbCircle
10
-3.8085034113455829
20
0.075000453241275758
30
0
40
0.091246588654418023
100
AcDbArc
50
90
51
90.196682459412699
0
CIRCLE
5
166
100
AcDbEntity
8
0
100
AcDbCircle
10
3.8013068645372998
20
0.075000097328693185
30
0
40
0.040000000000000299
0
LINE
5
167
100
AcDbEntity
8
0
100
AcDbLine
10
3.801028499307332
20
-0.023942646558814385
30
0
11
3.9002499999999993
21
-0.02422179604237237
31
0
0
LINE
5
168
100
AcDbEntity
8
0
100
AcDbLine
10
3.8016035149442096
20
0.17394278808312061
30
0
11
3.9002499999999993
21
0.17364702576142829
31
0
0
ARC
5
169
100
AcDbEntity
8
0
100
AcDbCircle
10
3.8013068645372998
20
0.075000097328693185
30
0
40
0.098943135462699866
100
AcDbArc
50
89.828216058730405
51
269.83880464464971
0
LINE
5
170
100
AcDbEntity
8
0
100
AcDbLine
10
3.9002499999999993
20
-3.0500000000000003
30
0
11
1.7669999999999997
21
-3.0500000000000003
31
0
0
LINE
5
171
100
AcDbEntity
8
0
100
AcDbLine
10
1.7669999999999997
20
-3.0500000000000003
30
0
11
1.7669999999999997
21
0.44999999999999996
31
0
0
LINE
5
172
100
AcDbEntity
8
0
100
AcDbLine
10
1.7669999999999997
20
0.54999999999999993
30
0
11
3.9002499999999993
21
0.54999999999999971
31
0
0
LINE
5
173
100
AcDbEntity
8
0
100
AcDbLine
10
3.9002499999999993
20
0.54999999999999971
30
0
11
3.9002499999999993
21
-3.0500000000000003
31
0
0
LINE
5
174
100
AcDbEntity
8
0
100
AcDbLine
10
-3.8997500000000005
20
-3.0500000000000003
30
0
11
-1.7667500000000005
21
-3.0500000000000003
31
0
0
LINE
5
175
100
AcDbEntity
8
0
100
AcDbLine
10
-1.7667500000000005
20
-3.0500000000000003
30
0
11
-1.7667500000000005
21
0.54999999999999971
31
0
0
LINE
5
176
100
AcDbEntity
8
0
100
AcDbLine
10
-1.7667500000000005
20
0.54999999999999971
30
0
11
-3.8997500000000005
21
0.54999999999999993
31
0
0
LINE
5
177
100
AcDbEntity
8
0
100
AcDbLine
10
-3.8997500000000005
20
0.54999999999999993
30
0
11
-3.8997500000000005
21
-3.0500000000000003
31
0
0
LINE
5
178
100
AcDbEntity
8
0
100
AcDbLine
10
1.7669999999999997
20
-2.9499999999999997
30
0
11
0
21
-2.9499999999999997
31
0
0
LINE
5
179
100
AcDbEntity
8
0
100
AcDbLine
10
0
20
-2.9499999999999997
30
0
11
0
21
-3.0499999999999998
31
0
0
LINE
5
180
100
AcDbEntity
8
0
100
AcDbLine
10
0
20
-3.0499999999999998
30
0
11
1.7669999999999997
21
-3.0500000000000003
31
0
0
LINE
5
181
100
AcDbEntity
8
0
100
AcDbLine
10
1.7669999999999997
20
-3.0500000000000003
30
0
11
1.7669999999999997
21
-2.9499999999999997
31
0
0
LINE
5
182
100
AcDbEntity
8
0
100
AcDbLine
10
0.00024290444121552609
20
0.44999999999999996
30
0
11
0.00025004875325932417
21
0.55000089264455521
31
0
0
LINE
5
183
100
AcDbEntity
8
0
100
AcDbLine
10
1.7669999999999997
20
0.44999999999999996
30
0
11
1.766999999999999
21
0.55000059939401613
31
0
0
LINE
5
184
100
AcDbEntity
8
0
100
AcDbLine
10
-3.8997500000000005
20
0.54999999999999993
30
0
11
-3.1397500000000003
21
0.54999999999999993
31
0
0
LINE
5
185
100
AcDbEntity
8
0
100
AcDbLine
10
-3.1397500000000003
20
0.54999999999999993
30
0
11
-3.1397500000000003
21
0.55000141383132883
31
0
0
LINE
5
186
100
AcDbEntity
8
0
100
AcDbLine
10
-2.7497500000000006
20
0.55000134909794074
30
0
11
-2.7497500000000006
21
0.54999999999999993
31
0
0
LINE
5
187
100
AcDbEntity
8
0
100
AcDbLine
10
-2.7497500000000006
20
0.54999999999999993
30
0
11
-3.8997500000000005
21
0.54999999999999993
31
0
0
LINE
5
188
100
AcDbEntity
8
0
100
AcDbLine
10
-2.7384189274073272
20
0.44999999999999996
30
0
11
-2.7384189274073272
21
0.54999999999999982
31
0
0
LINE
5
189
100
AcDbEntity
8
0
100
AcDbLine
10
-3.150938610868165
20
0.44999999999999996
30
0
11
-3.150938610868165
21
0.55000141568844851
31
0
0
LINE
5
190
100
AcDbEntity
8
0
100
AcDbLine
10
-3.8085034113455829
20
0.54999999999999993
30
0
11
-3.8085034113455829
21
0.55000045324713587
31
0
0
LINE
5
191
100
AcDbEntity
8
0
100
AcDbLine
10
-3.8997500000000005
20
0.17499999999999999
30
0
11
-3.8997500000000005
21
0.54999999999999993
31
0
0
LINE
5
192
100
AcDbEntity
8
0
100
AcDbLine
10
-3.8997500000000005
20
-0.13800000000000001
30
0
11
-3.8997500000000005
21
0.17499999999999999
31
0
0
LINE
5
193
100
AcDbEntity
8
0
100
AcDbLine
10
-3.7247500000000002
20
0.17499999999999999
30
0
11
-3.6665000000000001
21
0.17499999999999993
31
0
0
LWPOLYLINE
5
194
100
AcDbEntity
8
0
100
AcDbPolyline
90
4
70
1
43
0.0
10
-3.7247500000000002
20
-0.21799999999999997
10
-3.8997500000000005
20
-0.21799999999999997
10
-3.8997500000000005
20
0.25500000000000006
10
-3.7247500000000002
20
0.25500000000000006
0
LINE
5
195
100
AcDbEntity
8
0
100
AcDbLine
10
-3.81975
20
0.255
30
0
11
-3.8997500000000005
21
0.25500000000000006
31
0
0
LINE
5
196
100
AcDbEntity
8
0
100
AcDbLine
10
-3.8997500000000005
20
-0.21799999999999997
30
0
11
-3.81975
21
-0.21800000000000003
31
0
0
LINE
5
197
100
AcDbEntity
8
0
100
AcDbLine
10
-3.7247500000000002
20
-0.13800000000000007
30
0
11
-3.6665000000000001
21
-0.13800000000000007
31
0
0
CIRCLE
5
198
100
AcDbEntity
8
0
100
AcDbCircle
10
-3.8000001212743322
20
-0.40000001276571917
30
0
40
0.040000000000000008
0
LINE
5
199
100
AcDbEntity
8
0
100
AcDbLine
10
-3.8000001212743322
20
-0.49974989149138738
30
0
11
-3.8997500000000005
21
-0.50124361764607739
31
0
0
LINE
5
200
100
AcDbEntity
8
0
100
AcDbLine
10
-3.8000001212743322
20
-0.30025013404005091
30
0
11
-3.8997500000000005
21
-0.30011900731032992
31
0
0
ARC
5
201
100
AcDbEntity
8
0
100
AcDbCircle
10
-3.8000001212743322
20
-0.40000001276571917
30
0
40
0.099749878725668234
100
AcDbArc
50
-90
51
90
0
CIRCLE
5
202
100
AcDbEntity
8
0
100
AcDbCircle
10
2.9152499999999995
20
-2.0649999999999999
30
0
40
0.59999999999999998
0
CIRCLE
5
203
100
AcDbEntity
8
0
100
AcDbCircle
10
2.9152499999999995
20
-2.0649999999999999
30
0
40
0.062500000000000153
0
LINE
5
204
100
AcDbEntity
8
0
100
AcDbLine
10
2.9561590909090905
20
-2.2149999999999999
30
0
11
2.8743409090909089
21
-1.9150000000000005
31
0
0
LINE
5
205
100
AcDbEntity
8
0
100
AcDbLine
10
2.8743409090909089
20
-2.2149999999999999
30
0
11
2.9561590909090905
21
-1.9150000000000005
31
0
0
LINE
5
206
100
AcDbEntity
8
0
100
AcDbLine
10
3.0652499999999994
20
-2.0240909090909098
30
0
11
2.76525
21
-2.105909090909091
31
0
0
LINE
5
207
100
AcDbEntity
8
0
100
AcDbLine
10
2.76525
20
-2.0240909090909098
30
0
11
3.0652499999999994
21
-2.105909090909091
31
0
0
CIRCLE
5
208
100
AcDbEntity
8
0
100
AcDbCircle
10
2.9152499999999995
20
-2.0649999999999999
30
0
40
0.14999999999999972
0
LINE
5
209
100
AcDbEntity
8
0
100
AcDbLine
10
3.0652499999999994
20
-2.5104211490264023
30
0
11
3.0652499999999994
21
-2.2149999999999999
31
0
0
LINE
5
210
100
AcDbEntity
8
0
100
AcDbLine
10
3.3606711490264014
20
-2.2149999999999999
30
0
11
3.0652499999999994
21
-2.2149999999999999
31
0
0
LINE
5
211
100
AcDbEntity
8
0
100
AcDbLine
10
3.0652499999999994
20
-1.9150000000000005
30
0
11
3.0652499999999994
21
-1.619578850973598
31
0
0
LINE
5
212
100
AcDbEntity
8
0
100
AcDbLine
10
3.0652499999999994
20
-1.9150000000000005
30
0
11
3.3606711490264014
21
-1.9150000000000005
31
0
0
LINE
5
213
100
AcDbEntity
8
0
100
AcDbLine
10
2.4698288509735975
20
-1.9150000000000005
30
0
11
2.76525
21
-1.9150000000000005
31
0
0
LINE
5
214
100
AcDbEntity
8
0
100
AcDbLine
10
2.76525
20
-1.619578850973598
30
0
11
2.76525
21
-1.9150000000000005
31
0
0
LINE
5
215
100
AcDbEntity
8
0
100
AcDbLine
10
2.76525
20
-2.2149999999999999
30
0
11
2.76525
21
-2.5104211490264023
31
0
0
LINE
5
216
100
AcDbEntity
8
0
100
AcDbLine
10
2.76525
20
-2.2149999999999999
30
0
11
2.4698288509735975
21
-2.2149999999999999
31
0
0
CIRCLE
5
217
100
AcDbEntity
8
0
100
AcDbCircle
10
2.6652499999999999
20
-0.21500000000000033
30
0
40
0.12
0
CIRCLE
5
218
100
AcDbEntity
8
0
100
AcDbCircle
10
2.6652499999999999
20
-0.7150000000000003
30
0
40
0.12000000000000006
0
LINE
5
219
100
AcDbEntity
8
0
100
AcDbLine
10
-3.8997500000000005
20
-0.71499999999999941
30
0
11
-3.9000001244657621
21
-0.71499999999999897
31
0
0
LINE
5
220
100
AcDbEntity
8
0
100
AcDbLine
10
-3.9000001244657621
20
-0.71499999999999897
30
0
11
-3.8997500000000005
21
-0.71499999999999941
31
0
0
LWPOLYLINE
5
221
100
AcDbEntity
8
0
100
AcDbPolyline
90
4
70
1
43
0.0
10
2.4902500000000001
20
-0.71500000000000175
10
2.4902500000000001
20
-0.21499999999999947
42
-0.99999999999999989
10
2.8402499999999997
20
-0.21500000000000122
10
2.8402499999999997
20
-0.71499999999999886
42
-0.99999999999999989
0
CIRCLE
5
222
100
AcDbEntity
8
0
100
AcDbCircle
10
-2.9147500000000002
20
-2.0649999999999999
30
0
40
0.37500000000000017
0
CIRCLE
5
223
100
AcDbEntity
8
0
100
AcDbCircle
10
-2.9147500000000002
20
-2.0649999999999999
30
0
40
0.26000000000000001
0
LINE
5
224
100
AcDbEntity
8
0
100
AcDbLine
10
2.4152499999999999
20
-2.7649999999999997
30
0
11
3.415249999999999
21
-1.3650000000000004
31
0
0
LINE
5
225
100
AcDbEntity
8
0
100
AcDbLine
10
3.415249999999999
20
-2.7649999999999997
30
0
11
2.4152499999999999
21
-1.3650000000000004
31
0
0
CIRCLE
5
226
100
AcDbEntity
8
0
100
AcDbCircle
10
3.415249999999999
20
-2.7649999999999997
30
0
40
0.05000000000000001
0
CIRCLE
5
227
100
AcDbEntity
8
0
100
AcDbCircle
10
2.4152499999999999
20
-2.7649999999999997
30
0
40
0.049999999999999996
0
CIRCLE
5
228
100
AcDbEntity
8
0
100
AcDbCircle
10
2.4152499999999999
20
-1.3650000000000004
30
0
40
0.049999999999999906
0
CIRCLE
5
229
100
AcDbEntity
8
0
100
AcDbCircle
10
3.415249999999999
20
-1.3650000000000004
30
0
40
0.049999999999999906
0
LINE
5
230
100
AcDbEntity
8
0
100
AcDbLine
10
2.4152499999999999
20
-2.6301831003176175
30
0
11
2.2803366361237742
21
-2.6301831003176175
31
0
0
LINE
5
231
100
AcDbEntity
8
0
100
AcDbLine
10
2.5500668996823825
20
-2.7649999999999997
30
0
11
2.5505257435357254
21
-2.9500000000000006
31
0
0
LINE
5
232
100
AcDbEntity
8
0
100
AcDbLine
10
3.2802499999999988
20
-2.7649999999999997
30
0
11
3.282141386307154
21
-2.9500000000000006
31
0
0
LINE
5
233
100
AcDbEntity
8
0
100
AcDbLine
10
3.415249999999999
20
-2.6299999999999999
30
0
11
3.6669999999999998
21
-2.6295047851135638
31
0
0
ARC
5
234
100
AcDbEntity
8
0
100
AcDbCircle
10
3.415249999999999
20
-2.7649999999999997
30
0
40
0.13500000000000006
100
AcDbArc
50
90
51
181.17151002546453
0
ARC
5
235
100
AcDbEntity
8
0
100
AcDbCircle
10
2.4152499999999999
20
-2.7649999999999997
30
0
40
0.13481689968238256
100
AcDbArc
50
0
51
90
0
LINE
5
236
100
AcDbEntity
8
0
100
AcDbLine
10
3.415249999999999
20
-1.2300000000000002
30
0
11
2.4152499999999981
21
-1.2300000000000002
31
0
0
LINE
5
237
100
AcDbEntity
8
0
100
AcDbLine
10
3.2952260788884193
20
-1.4268001485516122
30
0
11
2.5352739211115796
21
-1.4268001485516122
31
0
0
ARC
5
238
100
AcDbEntity
8
0
100
AcDbCircle
10
3.415249999999999
20
-1.3650000000000004
30
0
40
0.13500000000000009
100
AcDbArc
50
207.24387518373902
51
270
0
LINE
5
239
100
AcDbEntity
8
0
100
AcDbLine
10
3.415249999999999
20
-1.5000000000000004
30
0
11
3.6669999999999998
21
-1.5000000000000004
31
0
0
LINE
5
240
100
AcDbEntity
8
0
100
AcDbLine
10
3.415249999999999
20
-1.2300000000000002
30
0
11
3.6669999999999998
21
-1.2285367931705902
31
0
0
LINE
5
241
100
AcDbEntity
8
0
100
AcDbLine
10
2.1052499999999998
20
-2.3319999999999999
30
0
11
2.2823565946070974
21
-1.3412440996155126
31
0
0
LINE
5
242
100
AcDbEntity
8
0
100
AcDbLine
10
2.3859047961256961
20
-1.4967719963026123
30
0
11
2.2085670403489237
21
-2.3657534454454239
31
0
0
ARC
5
243
100
AcDbEntity
8
0
100
AcDbCircle
10
2.4152499999999999
20
-1.3650000000000004
30
0
40
0.13500000000000006
100
AcDbArc
50
90.000000000000767
51
169.86491034410437
0
ARC
5
244
100
AcDbEntity
8
0
100
AcDbCircle
10
2.4152499999999999
20
-1.3650000000000004
30
0
40
0.13500000000000004
100
AcDbArc
50
257.44528236818024
51
332.75612481626098
0
CIRCLE
5
245
100
AcDbEntity
8
0
100
AcDbCircle
10
2.6652499999999999
20
0.19356566002211648
30
0
40
0.050000000000000107
0
LINE
5
246
100
AcDbEntity
8
0
100
AcDbLine
10
2.9500000941471787
20
0.45000001436143405
30
0
11
2.7851406564956758
21
0.13150737705331547
31
0
0
LINE
5
247
100
AcDbEntity
8
0
100
AcDbLine
10
2.3903113884403697
20
0.44999999999999996
30
0
11
2.5438622210050776
21
0.13448937788892906
31
0
0
ARC
5
248
100
AcDbEntity
8
0
100
AcDbCircle
10
2.6652499999999999
20
0.19356566002211648
30
0
40
0.13499999999999995
100
AcDbArc
50
205.95098484443801
51
332.63283087478987
0
LINE
5
249
100
AcDbEntity
8
0
100
AcDbLine
10
-2.4400001244657621
20
-0.77499999999999891
30
0
11
-2.8900001244657618
21
-0.77499999999999891
31
0
0
LINE
5
250
100
AcDbEntity
8
0
100
AcDbLine
10
-2.8900001244657618
20
-0.77499999999999891
30
0
11
-2.8900001244657618
21
-0.65499999999999903
31
0
0
LINE
5
251
100
AcDbEntity
8
0
100
AcDbLine
10
-2.8900001244657618
20
-0.65499999999999903
30
0
11
-2.4400001244657621
21
-0.65499999999999903
31
0
0
LINE
5
252
100
AcDbEntity
8
0
100
AcDbLine
10
-2.4400001244657621
20
-0.65499999999999903
30
0
11
-2.4400001244657621
21
-0.77499999999999891
31
0
0
LINE
5
253
100
AcDbEntity
8
0
100
AcDbLine
10
-2.4400001244657621
20
-0.77499999999999891
30
0
11
-2.8900001244657618
21
-0.65499999999999903
31
0
0
LINE
5
254
100
AcDbEntity
8
0
100
AcDbLine
10
-2.8900001244657618
20
-0.77499999999999891
30
0
11
-2.4400001244657621
21
-0.65499999999999903
31
0
0
LINE
5
255
100
AcDbEntity
8
0
100
AcDbLine
10
-2.4400001244657621
20
-0.27499999999999919
30
0
11
-2.8900001244657618
21
-0.27499999999999919
31
0
0
LINE
5
256
100
AcDbEntity
8
0
100
AcDbLine
10
-2.8900001244657618
20
-0.27499999999999919
30
0
11
-2.8900001244657618
21
-0.15499999999999922
31
0
0
LINE
5
257
100
AcDbEntity
8
0
100
AcDbLine
10
-2.8900001244657618
20
-0.15499999999999922
30
0
11
-2.4400001244657621
21
-0.15499999999999922
31
0
0
LINE
5
258
100
AcDbEntity
8
0
100
AcDbLine
10
-2.4400001244657621
20
-0.15499999999999922
30
0
11
-2.4400001244657621
21
-0.27499999999999919
31
0
0
LINE
5
259
100
AcDbEntity
8
0
100
AcDbLine
10
-2.4400001244657621
20
-0.27499999999999919
30
0
11
-2.8900001244657618
21
-0.15499999999999922
31
0
0
LINE
5
260
100
AcDbEntity
8
0
100
AcDbLine
10
-2.8900001244657618
20
-0.27499999999999919
30
0
11
-2.4400001244657621
21
-0.15499999999999922
31
0
0
CIRCLE
5
261
100
AcDbEntity
8
0
100
AcDbCircle
10
-3.4772500000000002
20
-2.0649999999999999
30
0
40
0.15000000000000008
0
CIRCLE
5
262
100
AcDbEntity
8
0
100
AcDbCircle
10
-2.9147500000000002
20
-2.6274999999999999
30
0
40
0.14999999999999983
0
CIRCLE
5
263
100
AcDbEntity
8
0
100
AcDbCircle
10
-2.3522500000000006
20
-2.0649999999999999
30
0
40
0.13293746255219835
0
CIRCLE
5
264
100
AcDbEntity
8
0
100
AcDbCircle
10
-2.9147500000000002
20
-1.5025000000000002
30
0
40
0.15000000000000002
0
CIRCLE
5
265
100
AcDbEntity
8
0
100
AcDbCircle
10
-2.9147500000000002
20
-2.6274999999999999
30
0
40
0.049999999999999975
0
CIRCLE
5
266
100
AcDbEntity
8
0
100
AcDbCircle
10
-3.4772500000000002
20
-2.0649999999999999
30
0
40
0.049999999999999906
0
CIRCLE
5
267
100
AcDbEntity
8
0
100
AcDbCircle
10
-2.9147500000000002
20
-1.5025000000000002
30
0
40
0.049999999999999961
0
CIRCLE
5
268
100
AcDbEntity
8
0
100
AcDbCircle
10
-2.3522500000000006
20
-2.0649999999999999
30
0
40
0.04999999999999994
0
LWPOLYLINE
5
269
100
AcDbEntity
8
0
100
AcDbPolyline
90
4
70
1
43
0.0
10
-3.0421955292611114
20
-0.90000002872286811
10
-2.3000000734028854
20
-0.90000002872286811
10
-2.3000000734028854
20
0.4499999999999999
10
-3.0421955292611114
20
0.4499999999999999
0
LINE
5
270
100
AcDbEntity
8
0
100
AcDbLine
10
-2.7647500000000007
20
-2.6274999999999999
30
0
11
-2.7656560307173725
21
-2.9499999999999997
31
0
0
LINE
5
271
100
AcDbEntity
8
0
100
AcDbLine
10
-3.0647500000000001
20
-2.6274999999999999
30
0
11
-3.0674747660695609
21
-2.9499999999999997
31
0
0
LINE
5
272
100
AcDbEntity
8
0
100
AcDbLine
10
-3.4772500000000002
20
-2.2150000000000003
30
0
11
-3.6665000000000005
21
-2.2150000000000003
31
0
0
LINE
5
273
100
AcDbEntity
8
0
100
AcDbLine
10
-3.4772500000000002
20
-1.915
30
0
11
-3.6665000000000005
21
-1.915
31
0
0
LINE
5
274
100
AcDbEntity
8
0
100
AcDbLine
10
-2.2193125374478022
20
-2.0649999999999999
30
0
11
-2.1047500000000001
21
-2.3320000000000003
31
0
0
LINE
5
275
100
AcDbEntity
8
0
100
AcDbLine
10
-2.2797499999999999
20
-2.5904151798417989
30
0
11
-2.4751817623431833
21
-2.1155979323393383
31
0
0
LINE
5
276
100
AcDbEntity
8
0
100
AcDbLine
10
-3.0421955292611114
20
-0.90000002872286811
30
0
11
-3.0646440193128353
21
-1.4968623609335623
31
0
0
LINE
5
277
100
AcDbEntity
8
0
100
AcDbLine
10
-2.7648559806871655
20
-1.4968623609335623
30
0
11
-2.7648559806871655
21
-0.90000002872286811
31
0
0
CIRCLE
5
278
100
AcDbEntity
8
0
100
AcDbCircle
10
2.9152499999999995
20
-2.0649999999999999
30
0
40
0.47000000000000014
0
CIRCLE
5
279
100
AcDbEntity
8
0
100
AcDbCircle
10
-2.9147500000000002
20
-2.0649999999999999
30
0
40
0.31999999999999978
0
CIRCLE
5
280
100
AcDbEntity
8
0
100
AcDbCircle
10
2.6652499999999999
20
-0.21500000000000033
30
0
40
0.14000000000000007
0
CIRCLE
5
281
100
AcDbEntity
8
0
100
AcDbCircle
10
2.6652499999999999
20
-0.7150000000000003
30
0
40
0.14000000000000007
0
LWPOLYLINE
5
282
100
AcDbEntity
8
0
100
AcDbPolyline
90
4
70
1
43
0.0
10
-2.9100001244657618
20
-0.79499999999999904
10
-2.4200001244657625
20
-0.79499999999999904
10
-2.4200001244657625
20
-0.63499999999999912
10
-2.9100001244657618
20
-0.63499999999999912
0
LWPOLYLINE
5
283
100
AcDbEntity
8
0
100
AcDbPolyline
90
4
70
1
43
0.0
10
-2.4200001244657625
20
-0.1349999999999992
10
-2.9100001244657618
20
-0.1349999999999992
10
-2.9100001244657618
20
-0.29499999999999915
10
-2.4200001244657625
20
-0.29499999999999915
0
ENDSEC
0
SECTION
2
OBJECTS
0
DICTIONARY
5
C
100
AcDbDictionary
3
ACAD_GROUP
350
D
3
ACAD_MLINESTYLE
350
17
0
DICTIONARY
5
D
100
AcDbDictionary
0
DICTIONARY
5
1A
330
C
100
AcDbDictionary
0
DICTIONARY
5
17
100
AcDbDictionary
0
ENDSEC
0
EOF
